0
SECTION
2
ENTITIES
0
LINE
8
0
10
0.6167
20
-0.0333
30
0.0000
11
0.5833
21
-0.0333
31
0.0000
0
LINE
8
0
10
-0.0333
20
0.6167
30
0.0000
11
-0.0332
21
0.6500
31
0.0000
0
LINE
8
0
10
-0.0332
20
0.6500
30
0.0000
11
-0.0167
21
0.6798
31
0.0000
0
LINE
8
0
10
-0.0167
20
0.6798
30
0.0000
11
0.0167
21
0.6798
31
0.0000
0
LINE
8
0
10
0.0167
20
0.6798
30
0.0000
11
0.0500
21
0.6517
31
0.0000
0
LINE
8
0
10
0.0500
20
0.6517
30
0.0000
11
0.0517
21
0.6500
31
0.0000
0
LINE
8
0
10
0.0517
20
0.6500
30
0.0000
11
0.0833
21
0.6221
31
0.0000
0
LINE
8
0
10
0.0833
20
0.6221
30
0.0000
11
0.0888
21
0.6167
31
0.0000
0
LINE
8
0
10
0.0888
20
0.6167
30
0.0000
11
0.1167
21
0.5914
31
0.0000
0
LINE
8
0
10
0.1167
20
0.5914
30
0.0000
11
0.1247
21
0.5833
31
0.0000
0
LINE
8
0
10
0.1247
20
0.5833
30
0.0000
11
0.1500
21
0.5602
31
0.0000
0
LINE
8
0
10
0.1500
20
0.5602
30
0.0000
11
0.1606
21
0.5500
31
0.0000
0
LINE
8
0
10
0.1606
20
0.5500
30
0.0000
11
0.1833
21
0.5291
31
0.0000
0
LINE
8
0
10
0.1833
20
0.5291
30
0.0000
11
0.1973
21
0.5167
31
0.0000
0
LINE
8
0
10
0.1973
20
0.5167
30
0.0000
11
0.2167
21
0.4986
31
0.0000
0
LINE
8
0
10
0.2167
20
0.4986
30
0.0000
11
0.2334
21
0.4833
31
0.0000
0
LINE
8
0
10
0.2334
20
0.4833
30
0.0000
11
0.2500
21
0.4674
31
0.0000
0
LINE
8
0
10
0.2500
20
0.4674
30
0.0000
11
0.2684
21
0.4500
31
0.0000
0
LINE
8
0
10
0.2684
20
0.4500
30
0.0000
11
0.2833
21
0.4354
31
0.0000
0
LINE
8
0
10
0.2833
20
0.4354
30
0.0000
11
0.3023
21
0.4167
31
0.0000
0
LINE
8
0
10
0.3023
20
0.4167
30
0.0000
11
0.3167
21
0.4023
31
0.0000
0
LINE
8
0
10
0.3167
20
0.4023
30
0.0000
11
0.3351
21
0.3833
31
0.0000
0
LINE
8
0
10
0.3351
20
0.3833
30
0.0000
11
0.3500
21
0.3680
31
0.0000
0
LINE
8
0
10
0.3500
20
0.3680
30
0.0000
11
0.3669
21
0.3500
31
0.0000
0
LINE
8
0
10
0.3669
20
0.3500
30
0.0000
11
0.3833
21
0.3326
31
0.0000
0
LINE
8
0
10
0.3833
20
0.3326
30
0.0000
11
0.3978
21
0.3167
31
0.0000
0
LINE
8
0
10
0.3978
20
0.3167
30
0.0000
11
0.4167
21
0.2963
31
0.0000
0
LINE
8
0
10
0.4167
20
0.2963
30
0.0000
11
0.4281
21
0.2833
31
0.0000
0
LINE
8
0
10
0.4281
20
0.2833
30
0.0000
11
0.4500
21
0.2594
31
0.0000
0
LINE
8
0
10
0.4500
20
0.2594
30
0.0000
11
0.4594
21
0.2500
31
0.0000
0
LINE
8
0
10
0.4594
20
0.2500
30
0.0000
11
0.4833
21
0.2232
31
0.0000
0
LINE
8
0
10
0.4833
20
0.2232
30
0.0000
11
0.4898
21
0.2167
31
0.0000
0
LINE
8
0
10
0.4898
20
0.2167
30
0.0000
11
0.5167
21
0.1852
31
0.0000
0
LINE
8
0
10
0.5167
20
0.1852
30
0.0000
11
0.5186
21
0.1833
31
0.0000
0
LINE
8
0
10
0.5186
20
0.1833
30
0.0000
11
0.5443
21
0.1500
31
0.0000
0
LINE
8
0
10
0.5443
20
0.1500
30
0.0000
11
0.5500
21
0.1436
31
0.0000
0
LINE
8
0
10
0.5500
20
0.1436
30
0.0000
11
0.5698
21
0.1167
31
0.0000
0
LINE
8
0
10
0.5698
20
0.1167
30
0.0000
11
0.5833
21
0.1003
31
0.0000
0
LINE
8
0
10
0.5833
20
0.1003
30
0.0000
11
0.5958
21
0.0833
31
0.0000
0
LINE
8
0
10
0.5958
20
0.0833
30
0.0000
11
0.6167
21
0.0574
31
0.0000
0
LINE
8
0
10
0.6167
20
0.0574
30
0.0000
11
0.6240
21
0.0500
31
0.0000
0
LINE
8
0
10
0.6240
20
0.0500
30
0.0000
11
0.6482
21
0.0167
31
0.0000
0
LINE
8
0
10
0.6482
20
0.0167
30
0.0000
11
0.6482
21
-0.0167
31
0.0000
0
LINE
8
0
10
1.0333
20
-0.0167
30
0.0000
11
0.9500
21
-0.0333
31
0.0000
0
LINE
8
0
10
0.9500
20
-0.0333
30
0.0000
11
0.9167
21
-0.0205
31
0.0000
0
LINE
8
0
10
0.9167
20
-0.0205
30
0.0000
11
0.9129
21
-0.0167
31
0.0000
0
LINE
8
0
10
0.9129
20
-0.0167
30
0.0000
11
0.9129
21
0.0167
31
0.0000
0
LINE
8
0
10
0.9129
20
0.0167
30
0.0000
11
0.9096
21
0.0500
31
0.0000
0
LINE
8
0
10
0.9096
20
0.0500
30
0.0000
11
0.9045
21
0.0833
31
0.0000
0
LINE
8
0
10
0.9045
20
0.0833
30
0.0000
11
0.8997
21
0.1167
31
0.0000
0
LINE
8
0
10
0.8997
20
0.1167
30
0.0000
11
0.8871
21
0.1500
31
0.0000
0
LINE
8
0
10
0.8871
20
0.1500
30
0.0000
11
0.8833
21
0.1561
31
0.0000
0
LINE
8
0
10
0.8833
20
0.1561
30
0.0000
11
0.8712
21
0.1833
31
0.0000
0
LINE
8
0
10
0.8712
20
0.1833
30
0.0000
11
0.8556
21
0.2167
31
0.0000
0
LINE
8
0
10
0.8556
20
0.2167
30
0.0000
11
0.8500
21
0.2243
31
0.0000
0
LINE
8
0
10
0.8500
20
0.2243
30
0.0000
11
0.8363
21
0.2500
31
0.0000
0
LINE
8
0
10
0.8363
20
0.2500
30
0.0000
11
0.8167
21
0.2772
31
0.0000
0
LINE
8
0
10
0.8167
20
0.2772
30
0.0000
11
0.8108
21
0.2833
31
0.0000
0
LINE
8
0
10
0.8108
20
0.2833
30
0.0000
11
0.7896
21
0.3167
31
0.0000
0
LINE
8
0
10
0.7896
20
0.3167
30
0.0000
11
0.7833
21
0.3241
31
0.0000
0
LINE
8
0
10
0.7833
20
0.3241
30
0.0000
11
0.7650
21
0.3500
31
0.0000
0
LINE
8
0
10
0.7650
20
0.3500
30
0.0000
11
0.7500
21
0.3679
31
0.0000
0
LINE
8
0
10
0.7500
20
0.3679
30
0.0000
11
0.7381
21
0.3833
31
0.0000
0
LINE
8
0
10
0.7381
20
0.3833
30
0.0000
11
0.7167
21
0.4080
31
0.0000
0
LINE
8
0
10
0.7167
20
0.4080
30
0.0000
11
0.7082
21
0.4167
31
0.0000
0
LINE
8
0
10
0.7082
20
0.4167
30
0.0000
11
0.6833
21
0.4447
31
0.0000
0
LINE
8
0
10
0.6833
20
0.4447
30
0.0000
11
0.6780
21
0.4500
31
0.0000
0
LINE
8
0
10
0.6780
20
0.4500
30
0.0000
11
0.6500
21
0.4811
31
0.0000
0
LINE
8
0
10
0.6500
20
0.4811
30
0.0000
11
0.6477
21
0.4833
31
0.0000
0
LINE
8
0
10
0.6477
20
0.4833
30
0.0000
11
0.6174
21
0.5167
31
0.0000
0
LINE
8
0
10
0.6174
20
0.5167
30
0.0000
11
0.6167
21
0.5174
31
0.0000
0
LINE
8
0
10
0.6167
20
0.5174
30
0.0000
11
0.5863
21
0.5500
31
0.0000
0
LINE
8
0
10
0.5863
20
0.5500
30
0.0000
11
0.5833
21
0.5530
31
0.0000
0
LINE
8
0
10
0.5833
20
0.5530
30
0.0000
11
0.5543
21
0.5833
31
0.0000
0
LINE
8
0
10
0.5543
20
0.5833
30
0.0000
11
0.5500
21
0.5877
31
0.0000
0
LINE
8
0
10
0.5500
20
0.5877
30
0.0000
11
0.5215
21
0.6167
31
0.0000
0
LINE
8
0
10
0.5215
20
0.6167
30
0.0000
11
0.5167
21
0.6215
31
0.0000
0
LINE
8
0
10
0.5167
20
0.6215
30
0.0000
11
0.4878
21
0.6500
31
0.0000
0
LINE
8
0
10
0.4878
20
0.6500
30
0.0000
11
0.4833
21
0.6544
31
0.0000
0
LINE
8
0
10
0.4833
20
0.6544
30
0.0000
11
0.4531
21
0.6833
31
0.0000
0
LINE
8
0
10
0.4531
20
0.6833
30
0.0000
11
0.4500
21
0.6864
31
0.0000
0
LINE
8
0
10
0.4500
20
0.6864
30
0.0000
11
0.4172
21
0.7167
31
0.0000
0
LINE
8
0
10
0.4172
20
0.7167
30
0.0000
11
0.4167
21
0.7172
31
0.0000
0
LINE
8
0
10
0.4167
20
0.7172
30
0.0000
11
0.3833
21
0.7470
31
0.0000
0
LINE
8
0
10
0.3833
20
0.7470
30
0.0000
11
0.3803
21
0.7500
31
0.0000
0
LINE
8
0
10
0.3803
20
0.7500
30
0.0000
11
0.3500
21
0.7764
31
0.0000
0
LINE
8
0
10
0.3500
20
0.7764
30
0.0000
11
0.3431
21
0.7833
31
0.0000
0
LINE
8
0
10
0.3431
20
0.7833
30
0.0000
11
0.3167
21
0.8056
31
0.0000
0
LINE
8
0
10
0.3167
20
0.8056
30
0.0000
11
0.3023
21
0.8167
31
0.0000
0
LINE
8
0
10
0.3023
20
0.8167
30
0.0000
11
0.2833
21
0.8318
31
0.0000
0
LINE
8
0
10
0.2833
20
0.8318
30
0.0000
11
0.2539
21
0.8500
31
0.0000
0
LINE
8
0
10
0.2539
20
0.8500
30
0.0000
11
0.2500
21
0.8532
31
0.0000
0
LINE
8
0
10
0.2500
20
0.8532
30
0.0000
11
0.2167
21
0.8718
31
0.0000
0
LINE
8
0
10
0.2167
20
0.8718
30
0.0000
11
0.1954
21
0.8833
31
0.0000
0
LINE
8
0
10
0.1954
20
0.8833
30
0.0000
11
0.1833
21
0.8910
31
0.0000
0
LINE
8
0
10
0.1833
20
0.8910
30
0.0000
11
0.1500
21
0.9023
31
0.0000
0
LINE
8
0
10
0.1500
20
0.9023
30
0.0000
11
0.1167
21
0.9078
31
0.0000
0
LINE
8
0
10
0.1167
20
0.9078
30
0.0000
11
0.0833
21
0.9139
31
0.0000
0
LINE
8
0
10
0.0833
20
0.9139
30
0.0000
11
0.0500
21
0.9130
31
0.0000
0
LINE
8
0
10
0.0500
20
0.9130
30
0.0000
11
0.0167
21
0.9035
31
0.0000
0
LINE
8
0
10
0.0167
20
0.9035
30
0.0000
11
-0.0167
21
0.9035
31
0.0000
0
LINE
8
0
10
-0.0167
20
0.9035
30
0.0000
11
-0.0298
21
0.9167
31
0.0000
0
LINE
8
0
10
-0.0167
20
1.0333
30
0.0000
11
0.0167
21
1.0333
31
0.0000
0
LINE
8
0
10
0.0167
20
1.0333
30
0.0000
11
0.0500
21
1.0333
31
0.0000
0
LINE
8
0
10
0.0500
20
1.0333
30
0.0000
11
0.0833
21
1.0333
31
0.0000
0
LINE
8
0
10
0.0833
20
1.0333
30
0.0000
11
0.1167
21
1.0333
31
0.0000
0
LINE
8
0
10
0.1167
20
1.0333
30
0.0000
11
0.1500
21
1.0333
31
0.0000
0
LINE
8
0
10
0.1500
20
1.0333
30
0.0000
11
0.1833
21
1.0333
31
0.0000
0
LINE
8
0
10
0.1833
20
1.0333
30
0.0000
11
0.2167
21
1.0333
31
0.0000
0
LINE
8
0
10
0.2167
20
1.0333
30
0.0000
11
0.2500
21
1.0333
31
0.0000
0
LINE
8
0
10
0.2500
20
1.0333
30
0.0000
11
0.2833
21
1.0333
31
0.0000
0
LINE
8
0
10
0.2833
20
1.0333
30
0.0000
11
0.3167
21
1.0333
31
0.0000
0
LINE
8
0
10
0.3167
20
1.0333
30
0.0000
11
0.3500
21
1.0333
31
0.0000
0
LINE
8
0
10
0.3500
20
1.0333
30
0.0000
11
0.3833
21
1.0333
31
0.0000
0
LINE
8
0
10
0.3833
20
1.0333
30
0.0000
11
0.4167
21
1.0333
31
0.0000
0
LINE
8
0
10
0.4167
20
1.0333
30
0.0000
11
0.4500
21
1.0333
31
0.0000
0
LINE
8
0
10
0.4500
20
1.0333
30
0.0000
11
0.4833
21
1.0333
31
0.0000
0
LINE
8
0
10
0.4833
20
1.0333
30
0.0000
11
0.5167
21
1.0333
31
0.0000
0
LINE
8
0
10
0.5167
20
1.0333
30
0.0000
11
0.5500
21
1.0333
31
0.0000
0
LINE
8
0
10
0.5500
20
1.0333
30
0.0000
11
0.5833
21
1.0333
31
0.0000
0
LINE
8
0
10
0.5833
20
1.0333
30
0.0000
11
0.6167
21
1.0333
31
0.0000
0
LINE
8
0
10
0.6167
20
1.0333
30
0.0000
11
0.6500
21
1.0333
31
0.0000
0
LINE
8
0
10
0.6500
20
1.0333
30
0.0000
11
0.6833
21
1.0333
31
0.0000
0
LINE
8
0
10
0.6833
20
1.0333
30
0.0000
11
0.7167
21
1.0333
31
0.0000
0
LINE
8
0
10
0.7167
20
1.0333
30
0.0000
11
0.7500
21
1.0333
31
0.0000
0
LINE
8
0
10
0.7500
20
1.0333
30
0.0000
11
0.7833
21
1.0333
31
0.0000
0
LINE
8
0
10
0.7833
20
1.0333
30
0.0000
11
0.8167
21
1.0333
31
0.0000
0
LINE
8
0
10
0.8167
20
1.0333
30
0.0000
11
0.8500
21
1.0333
31
0.0000
0
LINE
8
0
10
0.8500
20
1.0333
30
0.0000
11
0.8833
21
1.0333
31
0.0000
0
LINE
8
0
10
0.8833
20
1.0333
30
0.0000
11
0.9167
21
1.0333
31
0.0000
0
LINE
8
0
10
0.9167
20
1.0333
30
0.0000
11
0.9500
21
1.0333
31
0.0000
0
LINE
8
0
10
0.9500
20
1.0333
30
0.0000
11
0.9833
21
1.0333
31
0.0000
0
LINE
8
0
10
0.9833
20
1.0333
30
0.0000
11
1.0167
21
1.0333
31
0.0000
0
LINE
8
0
10
1.0167
20
1.0333
30
0.0000
11
1.0333
21
1.0167
31
0.0000
0
LINE
8
0
10
1.0333
20
1.0167
30
0.0000
11
1.0333
21
0.9833
31
0.0000
0
LINE
8
0
10
1.0333
20
0.9833
30
0.0000
11
1.0333
21
0.9500
31
0.0000
0
LINE
8
0
10
1.0333
20
0.9500
30
0.0000
11
1.0333
21
0.9167
31
0.0000
0
LINE
8
0
10
1.0333
20
0.9167
30
0.0000
11
1.0333
21
0.8833
31
0.0000
0
LINE
8
0
10
1.0333
20
0.8833
30
0.0000
11
1.0333
21
0.8500
31
0.0000
0
LINE
8
0
10
1.0333
20
0.8500
30
0.0000
11
1.0333
21
0.8167
31
0.0000
0
LINE
8
0
10
1.0333
20
0.8167
30
0.0000
11
1.0333
21
0.7833
31
0.0000
0
LINE
8
0
10
1.0333
20
0.7833
30
0.0000
11
1.0333
21
0.7500
31
0.0000
0
LINE
8
0
10
1.0333
20
0.7500
30
0.0000
11
1.0333
21
0.7167
31
0.0000
0
LINE
8
0
10
1.0333
20
0.7167
30
0.0000
11
1.0333
21
0.6833
31
0.0000
0
LINE
8
0
10
1.0333
20
0.6833
30
0.0000
11
1.0333
21
0.6500
31
0.0000
0
LINE
8
0
10
1.0333
20
0.6500
30
0.0000
11
1.0333
21
0.6167
31
0.0000
0
LINE
8
0
10
1.0333
20
0.6167
30
0.0000
11
1.0333
21
0.5833
31
0.0000
0
LINE
8
0
10
1.0333
20
0.5833
30
0.0000
11
1.0333
21
0.5500
31
0.0000
0
LINE
8
0
10
1.0333
20
0.5500
30
0.0000
11
1.0333
21
0.5167
31
0.0000
0
LINE
8
0
10
1.0333
20
0.5167
30
0.0000
11
1.0333
21
0.4833
31
0.0000
0
LINE
8
0
10
1.0333
20
0.4833
30
0.0000
11
1.0333
21
0.4500
31
0.0000
0
LINE
8
0
10
1.0333
20
0.4500
30
0.0000
11
1.0333
21
0.4167
31
0.0000
0
LINE
8
0
10
1.0333
20
0.4167
30
0.0000
11
1.0333
21
0.3833
31
0.0000
0
LINE
8
0
10
1.0333
20
0.3833
30
0.0000
11
1.0333
21
0.3500
31
0.0000
0
LINE
8
0
10
1.0333
20
0.3500
30
0.0000
11
1.0333
21
0.3167
31
0.0000
0
LINE
8
0
10
1.0333
20
0.3167
30
0.0000
11
1.0333
21
0.2833
31
0.0000
0
LINE
8
0
10
1.0333
20
0.2833
30
0.0000
11
1.0333
21
0.2500
31
0.0000
0
LINE
8
0
10
1.0333
20
0.2500
30
0.0000
11
1.0333
21
0.2167
31
0.0000
0
LINE
8
0
10
1.0333
20
0.2167
30
0.0000
11
1.0333
21
0.1833
31
0.0000
0
LINE
8
0
10
1.0333
20
0.1833
30
0.0000
11
1.0333
21
0.1500
31
0.0000
0
LINE
8
0
10
1.0333
20
0.1500
30
0.0000
11
1.0333
21
0.1167
31
0.0000
0
LINE
8
0
10
1.0333
20
0.1167
30
0.0000
11
1.0333
21
0.0833
31
0.0000
0
LINE
8
0
10
1.0333
20
0.0833
30
0.0000
11
1.0333
21
0.0500
31
0.0000
0
LINE
8
0
10
1.0333
20
0.0500
30
0.0000
11
1.0333
21
0.0167
31
0.0000
0
LINE
8
0
10
1.0333
20
0.0167
30
0.0000
11
1.0333
21
-0.0167
31
0.0000
0
ENDSEC
0
EOF
